# xmcd
#
# Track frame offsets: 
#        150
#        17193
#        28256
#        40609
#        54899
#        68275
#        84856
#        98736
#        119985
#        133991
#        152217
#        166026
#        181781
#        195172
#        208218
#        221407
#        233672
#        247249
#        263638
#        280914
#        293322
#        312833
#        322150
#        337638
#
# Disc length: 4685 seconds
#
# Revision: 0
# Processed by: cddbd v1.5.2PL0 Copyright (c) Steve Scherf et al.
# Submitted via: ExactAudioCopy v1.0b1
#
DISCID=47124b18
DTITLE=Various Artist - Love and Jealousy
DYEAR=2010
DGENRE=Soul
TTITLE0=Quiet Elegance - Do You Love Me
TTITLE1=Barbara Lynn - This is the Thanks I Get
TTITLE2=Otis Clay - I Die a Little Each Day
TTITLE3=Syl Johnson - Could I Be Falling in Love
TTITLE4=George Jackson - I'm Gonna Wait
TTITLE5=Jean Plum - You Ask Me
TTITLE6=Al Green - One Woman
TTITLE7=Ronnie Lovejoy - Until You Get Enough of Me
TTITLE8=Fontella Bass - I'm Leaving the Choice to You
TTITLE9=Bobby McClure - To Get What You Want
TTITLE10=The Patterson Twins - Back in Love Again
TTITLE11=Oscar Perry - I'll Take Care of You
TTITLE12=Willie Walker - I Love Her
TTITLE13=Quiet Elegance - Will You Be My Man (In the Morning)
TTITLE14=Syl Johnson - Anyway the Wind Blows
TTITLE15=James Fry - Tumbling Down
TTITLE16=Ann Peebled - Give Me Some Credit
TTITLE17=Bobby Patterson - Take Time to Know the Truth
TTITLE18=O.V. Wright - Let's Straighten it Out
TTITLE19=The Masqueraders - Wake Up Fool
TTITLE20=Bobby Powell - When You Move You Lose
TTITLE21=Don Bryant - I'll Go Crazy
TTITLE22=Jean Plum - Back to You
TTITLE23=Otis Clay - It Was Jealousy
EXTD=
EXTT0=
EXTT1=
EXTT2=
EXTT3=
EXTT4=
EXTT5=
EXTT6=
EXTT7=
EXTT8=
EXTT9=
EXTT10=
EXTT11=
EXTT12=
EXTT13=
EXTT14=
EXTT15=
EXTT16=
EXTT17=
EXTT18=
EXTT19=
EXTT20=
EXTT21=
EXTT22=
EXTT23=
PLAYORDER=
